<svg xmlns="http://www.w3.org/2000/svg" xmlns:xlink="http://www.w3.org/1999/xlink" width="82" zoomAndPan="magnify" viewBox="0 0 61.5 63.749998" height="85" preserveAspectRatio="xMidYMid meet" version="1.0"><defs><clipPath id="fdb7a8bebf"><path d="M 10 0.132812 L 52.554688 0.132812 L 52.554688 62.625 L 10 62.625 Z M 10 0.132812 " clip-rule="nonzero"/></clipPath></defs><g clip-path="url(#fdb7a8bebf)"><path fill="#ff0000" d="M 15.484375 40.824219 L 13.339844 38.097656 C 7.921875 31.207031 10.230469 21.074219 18.097656 17.207031 L 52.800781 0.160156 L 52.800781 7.179688 C 52.800781 12.546875 49.734375 17.445312 44.910156 19.792969 L 21.839844 31.035156 C 20.164062 31.855469 18.691406 33.054688 17.582031 34.554688 C 16.464844 36.0625 15.507812 38.132812 15.582031 40.742188 C 16.34375 40.140625 17.183594 39.605469 18.097656 39.15625 L 52.800781 22.109375 L 52.800781 29.128906 C 52.800781 34.496094 49.734375 39.390625 44.910156 41.742188 L 21.839844 52.984375 C 20.164062 53.800781 18.691406 55 17.582031 56.503906 C 16.433594 58.054688 15.453125 60.195312 15.589844 62.910156 L 13.339844 60.046875 C 8.578125 53.988281 9.78125 45.433594 15.484375 40.824219 Z M 38.023438 55.222656 L 52.789062 62.914062 L 52.785156 43.695312 L 38.050781 51.113281 C 36.371094 51.960938 36.355469 54.351562 38.023438 55.222656 Z M 38.023438 55.222656 " fill-opacity="1" fill-rule="nonzero"/></g></svg>