<svg xmlns="http://www.w3.org/2000/svg" xmlns:xlink="http://www.w3.org/1999/xlink" width="293" zoomAndPan="magnify" viewBox="0 0 219.75 63.749997" height="85" preserveAspectRatio="xMidYMid meet" version="1.0"><defs><g/><clipPath id="eb45ad2481"><path d="M 176 0 L 218.941406 0 L 218.941406 62.753906 L 176 62.753906 Z M 176 0 " clip-rule="nonzero"/></clipPath></defs><g clip-path="url(#eb45ad2481)"><path fill="#ff0000" d="M 181.714844 40.859375 L 179.5625 38.125 C 174.121094 31.203125 176.441406 21.027344 184.34375 17.148438 L 219.1875 0.0273438 L 219.1875 7.074219 C 219.1875 12.464844 216.109375 17.382812 211.265625 19.746094 L 188.101562 31.03125 C 186.414062 31.855469 184.9375 33.058594 183.820312 34.566406 C 182.703125 36.082031 181.742188 38.160156 181.816406 40.78125 C 182.578125 40.175781 183.421875 39.636719 184.34375 39.1875 L 219.1875 22.070312 L 219.1875 29.117188 C 219.1875 34.503906 216.109375 39.425781 211.265625 41.785156 L 188.101562 53.074219 C 186.414062 53.894531 184.9375 55.097656 183.820312 56.605469 C 182.671875 58.164062 181.6875 60.3125 181.824219 63.039062 L 179.5625 60.164062 C 174.78125 54.082031 175.992188 45.488281 181.714844 40.859375 Z M 204.347656 55.320312 L 219.175781 63.046875 L 219.171875 43.746094 L 204.378906 51.195312 C 202.691406 52.042969 202.675781 54.445312 204.347656 55.320312 Z M 204.347656 55.320312 " fill-opacity="1" fill-rule="nonzero"/></g><g fill="#02428e" fill-opacity="1"><g transform="translate(14.067137, 46.777288)"><g><path d="M 17.1875 -17.0625 C 17.476562 -17.0625 17.675781 -16.992188 17.78125 -16.859375 C 17.882812 -16.734375 17.9375 -16.550781 17.9375 -16.3125 L 17.9375 -0.75 C 17.9375 -0.457031 17.867188 -0.257812 17.734375 -0.15625 C 17.609375 -0.0507812 17.425781 0 17.1875 0 L 14.703125 0 C 14.484375 0 14.300781 -0.0507812 14.15625 -0.15625 C 14.019531 -0.257812 13.953125 -0.457031 13.953125 -0.75 L 13.953125 -9.53125 L 11.359375 -5 C 11.296875 -4.894531 11.203125 -4.773438 11.078125 -4.640625 C 10.960938 -4.515625 10.804688 -4.453125 10.609375 -4.453125 L 9.328125 -4.453125 C 9.128906 -4.453125 8.972656 -4.515625 8.859375 -4.640625 C 8.753906 -4.773438 8.664062 -4.894531 8.59375 -5 L 5.984375 -9.53125 L 5.984375 -0.75 C 5.984375 -0.457031 5.914062 -0.257812 5.78125 -0.15625 C 5.65625 -0.0507812 5.472656 0 5.234375 0 L 2.671875 0 C 2.441406 0 2.257812 -0.0507812 2.125 -0.15625 C 1.988281 -0.257812 1.921875 -0.457031 1.921875 -0.75 L 1.921875 -16.3125 C 1.921875 -16.550781 1.972656 -16.734375 2.078125 -16.859375 C 2.179688 -16.992188 2.378906 -17.0625 2.671875 -17.0625 L 5.234375 -17.0625 C 5.679688 -17.0625 5.960938 -16.953125 6.078125 -16.734375 C 6.203125 -16.523438 6.316406 -16.34375 6.421875 -16.1875 L 9.96875 -9.8125 L 13.546875 -16.1875 C 13.628906 -16.34375 13.734375 -16.523438 13.859375 -16.734375 C 13.992188 -16.953125 14.273438 -17.0625 14.703125 -17.0625 Z M 17.1875 -17.0625 "/></g></g></g><g fill="#02428e" fill-opacity="1"><g transform="translate(36.515146, 46.777288)"><g><path d="M 14.265625 -3.625 C 14.554688 -3.625 14.753906 -3.554688 14.859375 -3.421875 C 14.960938 -3.296875 15.015625 -3.113281 15.015625 -2.875 L 15.015625 -0.75 C 15.015625 -0.53125 14.960938 -0.347656 14.859375 -0.203125 C 14.753906 -0.0664062 14.554688 0 14.265625 0 L 2.671875 0 C 2.378906 0 2.179688 -0.0664062 2.078125 -0.203125 C 1.972656 -0.347656 1.921875 -0.53125 1.921875 -0.75 L 1.921875 -16.28125 C 1.921875 -16.519531 1.972656 -16.703125 2.078125 -16.828125 C 2.179688 -16.960938 2.378906 -17.03125 2.671875 -17.03125 L 13.828125 -17.03125 C 14.117188 -17.03125 14.316406 -16.960938 14.421875 -16.828125 C 14.523438 -16.703125 14.578125 -16.519531 14.578125 -16.28125 L 14.578125 -14.140625 C 14.578125 -13.910156 14.523438 -13.726562 14.421875 -13.59375 C 14.316406 -13.457031 14.117188 -13.390625 13.828125 -13.390625 L 6 -13.390625 L 6 -10.5625 L 12.9375 -10.5625 C 13.238281 -10.5625 13.441406 -10.492188 13.546875 -10.359375 C 13.648438 -10.234375 13.703125 -10.050781 13.703125 -9.8125 L 13.703125 -7.796875 C 13.703125 -7.566406 13.648438 -7.382812 13.546875 -7.25 C 13.441406 -7.113281 13.238281 -7.046875 12.9375 -7.046875 L 6 -7.046875 L 6 -3.625 Z M 14.265625 -3.625 "/></g></g></g><g fill="#02428e" fill-opacity="1"><g transform="translate(55.338457, 46.777288)"><g><path d="M 8.46875 -17.03125 C 9.238281 -17.03125 10.03125 -16.914062 10.84375 -16.6875 C 11.65625 -16.457031 12.40625 -16.109375 13.09375 -15.640625 C 13.789062 -15.171875 14.351562 -14.566406 14.78125 -13.828125 C 15.21875 -13.097656 15.4375 -12.222656 15.4375 -11.203125 L 15.4375 -5.828125 C 15.4375 -4.804688 15.21875 -3.925781 14.78125 -3.1875 C 14.351562 -2.457031 13.789062 -1.851562 13.09375 -1.375 C 12.40625 -0.90625 11.65625 -0.554688 10.84375 -0.328125 C 10.03125 -0.109375 9.238281 0 8.46875 0 L 2.671875 0 C 2.378906 0 2.179688 -0.0664062 2.078125 -0.203125 C 1.972656 -0.347656 1.921875 -0.53125 1.921875 -0.75 L 1.921875 -16.28125 C 1.921875 -16.519531 1.972656 -16.703125 2.078125 -16.828125 C 2.179688 -16.960938 2.378906 -17.03125 2.671875 -17.03125 Z M 11.359375 -10.84375 C 11.359375 -11.65625 11.09375 -12.289062 10.5625 -12.75 C 10.03125 -13.207031 9.332031 -13.4375 8.46875 -13.4375 L 5.984375 -13.4375 L 5.984375 -3.59375 L 8.46875 -3.59375 C 9.332031 -3.59375 10.03125 -3.816406 10.5625 -4.265625 C 11.09375 -4.710938 11.359375 -5.351562 11.359375 -6.1875 Z M 11.359375 -10.84375 "/></g></g></g><g fill="#02428e" fill-opacity="1"><g transform="translate(74.757248, 46.777288)"><g><path d="M 9.328125 -3.546875 C 9.617188 -3.546875 9.816406 -3.476562 9.921875 -3.34375 C 10.023438 -3.21875 10.078125 -3.035156 10.078125 -2.796875 L 10.078125 -0.75 C 10.078125 -0.53125 10.023438 -0.347656 9.921875 -0.203125 C 9.816406 -0.0664062 9.617188 0 9.328125 0 L 2 0 C 1.695312 0 1.492188 -0.0664062 1.390625 -0.203125 C 1.296875 -0.347656 1.25 -0.53125 1.25 -0.75 L 1.25 -2.796875 C 1.25 -3.035156 1.296875 -3.21875 1.390625 -3.34375 C 1.492188 -3.476562 1.695312 -3.546875 2 -3.546875 L 3.625 -3.546875 L 3.625 -13.4375 L 2.046875 -13.4375 C 1.753906 -13.4375 1.554688 -13.503906 1.453125 -13.640625 C 1.347656 -13.773438 1.296875 -13.957031 1.296875 -14.1875 L 1.296875 -16.28125 C 1.296875 -16.519531 1.347656 -16.703125 1.453125 -16.828125 C 1.554688 -16.960938 1.753906 -17.03125 2.046875 -17.03125 L 9.25 -17.03125 C 9.539062 -17.03125 9.738281 -16.960938 9.84375 -16.828125 C 9.945312 -16.703125 10 -16.519531 10 -16.28125 L 10 -14.1875 C 10 -13.957031 9.945312 -13.773438 9.84375 -13.640625 C 9.738281 -13.503906 9.539062 -13.4375 9.25 -13.4375 L 7.6875 -13.4375 L 7.6875 -3.546875 Z M 9.328125 -3.546875 "/></g></g></g><g fill="#02428e" fill-opacity="1"><g transform="translate(88.842565, 46.777288)"><g><path d="M 14.65625 -17.03125 C 14.894531 -17.03125 15.078125 -16.976562 15.203125 -16.875 C 15.335938 -16.769531 15.40625 -16.570312 15.40625 -16.28125 L 15.40625 -5.203125 C 15.40625 -4.179688 15.195312 -3.316406 14.78125 -2.609375 C 14.363281 -1.898438 13.8125 -1.328125 13.125 -0.890625 C 12.445312 -0.453125 11.707031 -0.128906 10.90625 0.078125 C 10.101562 0.285156 9.316406 0.390625 8.546875 0.390625 C 7.765625 0.390625 6.976562 0.285156 6.1875 0.078125 C 5.394531 -0.128906 4.65625 -0.453125 3.96875 -0.890625 C 3.289062 -1.328125 2.742188 -1.898438 2.328125 -2.609375 C 1.910156 -3.316406 1.703125 -4.179688 1.703125 -5.203125 L 1.703125 -16.28125 C 1.703125 -16.570312 1.769531 -16.769531 1.90625 -16.875 C 2.050781 -16.976562 2.234375 -17.03125 2.453125 -17.03125 L 5.015625 -17.03125 C 5.265625 -17.03125 5.453125 -16.976562 5.578125 -16.875 C 5.710938 -16.769531 5.78125 -16.570312 5.78125 -16.28125 L 5.78125 -5.78125 C 5.78125 -4.96875 6.03125 -4.332031 6.53125 -3.875 C 7.03125 -3.425781 7.703125 -3.203125 8.546875 -3.203125 C 9.410156 -3.203125 10.09375 -3.425781 10.59375 -3.875 C 11.09375 -4.332031 11.34375 -4.96875 11.34375 -5.78125 L 11.34375 -16.28125 C 11.34375 -16.570312 11.410156 -16.769531 11.546875 -16.875 C 11.679688 -16.976562 11.863281 -17.03125 12.09375 -17.03125 Z M 14.65625 -17.03125 "/></g></g></g><g fill="#02428e" fill-opacity="1"><g transform="translate(108.546161, 46.777288)"><g><path d="M 17.1875 -17.0625 C 17.476562 -17.0625 17.675781 -16.992188 17.78125 -16.859375 C 17.882812 -16.734375 17.9375 -16.550781 17.9375 -16.3125 L 17.9375 -0.75 C 17.9375 -0.457031 17.867188 -0.257812 17.734375 -0.15625 C 17.609375 -0.0507812 17.425781 0 17.1875 0 L 14.703125 0 C 14.484375 0 14.300781 -0.0507812 14.15625 -0.15625 C 14.019531 -0.257812 13.953125 -0.457031 13.953125 -0.75 L 13.953125 -9.53125 L 11.359375 -5 C 11.296875 -4.894531 11.203125 -4.773438 11.078125 -4.640625 C 10.960938 -4.515625 10.804688 -4.453125 10.609375 -4.453125 L 9.328125 -4.453125 C 9.128906 -4.453125 8.972656 -4.515625 8.859375 -4.640625 C 8.753906 -4.773438 8.664062 -4.894531 8.59375 -5 L 5.984375 -9.53125 L 5.984375 -0.75 C 5.984375 -0.457031 5.914062 -0.257812 5.78125 -0.15625 C 5.65625 -0.0507812 5.472656 0 5.234375 0 L 2.671875 0 C 2.441406 0 2.257812 -0.0507812 2.125 -0.15625 C 1.988281 -0.257812 1.921875 -0.457031 1.921875 -0.75 L 1.921875 -16.3125 C 1.921875 -16.550781 1.972656 -16.734375 2.078125 -16.859375 C 2.179688 -16.992188 2.378906 -17.0625 2.671875 -17.0625 L 5.234375 -17.0625 C 5.679688 -17.0625 5.960938 -16.953125 6.078125 -16.734375 C 6.203125 -16.523438 6.316406 -16.34375 6.421875 -16.1875 L 9.96875 -9.8125 L 13.546875 -16.1875 C 13.628906 -16.34375 13.734375 -16.523438 13.859375 -16.734375 C 13.992188 -16.953125 14.273438 -17.0625 14.703125 -17.0625 Z M 17.1875 -17.0625 "/></g></g></g><g fill="#02428e" fill-opacity="1"><g transform="translate(130.994165, 46.777288)"><g><path d="M 16.5625 -0.71875 C 16.632812 -0.5625 16.648438 -0.398438 16.609375 -0.234375 C 16.578125 -0.078125 16.414062 0 16.125 0 L 13.40625 0 C 13.132812 0 12.925781 -0.0507812 12.78125 -0.15625 C 12.644531 -0.257812 12.523438 -0.46875 12.421875 -0.78125 L 11.703125 -2.828125 L 5.359375 -2.828125 L 4.640625 -0.78125 C 4.535156 -0.46875 4.414062 -0.257812 4.28125 -0.15625 C 4.15625 -0.0507812 3.945312 0 3.65625 0 L 0.9375 0 C 0.65625 0 0.492188 -0.078125 0.453125 -0.234375 C 0.410156 -0.398438 0.421875 -0.5625 0.484375 -0.71875 L 6.234375 -16.234375 C 6.335938 -16.503906 6.472656 -16.703125 6.640625 -16.828125 C 6.804688 -16.960938 7.023438 -17.03125 7.296875 -17.03125 L 9.78125 -17.03125 C 10.082031 -17.03125 10.304688 -16.960938 10.453125 -16.828125 C 10.597656 -16.703125 10.726562 -16.503906 10.84375 -16.234375 Z M 8.546875 -12.171875 L 6.609375 -6.453125 L 10.484375 -6.453125 Z M 8.546875 -12.171875 "/></g></g></g><g fill="#02428e" fill-opacity="1"><g transform="translate(150.542416, 46.777288)"><g><path d="M 9.328125 -3.546875 C 9.617188 -3.546875 9.816406 -3.476562 9.921875 -3.34375 C 10.023438 -3.21875 10.078125 -3.035156 10.078125 -2.796875 L 10.078125 -0.75 C 10.078125 -0.53125 10.023438 -0.347656 9.921875 -0.203125 C 9.816406 -0.0664062 9.617188 0 9.328125 0 L 2 0 C 1.695312 0 1.492188 -0.0664062 1.390625 -0.203125 C 1.296875 -0.347656 1.25 -0.53125 1.25 -0.75 L 1.25 -2.796875 C 1.25 -3.035156 1.296875 -3.21875 1.390625 -3.34375 C 1.492188 -3.476562 1.695312 -3.546875 2 -3.546875 L 3.625 -3.546875 L 3.625 -13.4375 L 2.046875 -13.4375 C 1.753906 -13.4375 1.554688 -13.503906 1.453125 -13.640625 C 1.347656 -13.773438 1.296875 -13.957031 1.296875 -14.1875 L 1.296875 -16.28125 C 1.296875 -16.519531 1.347656 -16.703125 1.453125 -16.828125 C 1.554688 -16.960938 1.753906 -17.03125 2.046875 -17.03125 L 9.25 -17.03125 C 9.539062 -17.03125 9.738281 -16.960938 9.84375 -16.828125 C 9.945312 -16.703125 10 -16.519531 10 -16.28125 L 10 -14.1875 C 10 -13.957031 9.945312 -13.773438 9.84375 -13.640625 C 9.738281 -13.503906 9.539062 -13.4375 9.25 -13.4375 L 7.6875 -13.4375 L 7.6875 -3.546875 Z M 9.328125 -3.546875 "/></g></g></g></svg>